<svg width="236" height="53" viewBox="0 0 236 53" fill="none" xmlns="http://www.w3.org/2000/svg">
<path d="M32.8031 15.8282C30.5903 14.4928 27.7127 15.2054 26.3772 17.4182C25.0418 19.631 25.7544 22.5086 27.9672 23.8441C30.1801 25.1795 33.0576 24.4669 34.3931 22.2541C35.7286 20.0383 35.016 17.1637 32.8031 15.8282ZM33.1295 21.4905C32.2132 23.0087 30.243 23.4937 28.7278 22.5805C27.2097 21.6642 26.7246 19.6939 27.6379 18.1758C28.5541 16.6576 30.5244 16.1726 32.0426 17.0859C33.5577 18.0051 34.0458 19.9754 33.1295 21.4905Z" fill="white"/>
<path d="M26.5 0C11.8636 0 0 11.8636 0 26.5C0 41.1364 11.8636 53 26.5 53C41.1364 53 53 41.1364 53 26.5C53 11.8636 41.1364 0 26.5 0ZM40.3219 16.8911C39.5763 19.8615 38.3576 23.0415 36.5191 26.0897C34.5338 29.3775 32.312 32.2402 30.0842 34.5039C30.9137 37.3485 31.3778 41.7113 28.7308 46.095C28.7308 46.095 27.8295 46.6669 27.7666 45.2895C27.7067 43.9601 28.6889 41.0735 24.9908 38.6091C24.6944 38.7828 24.398 38.9445 24.1075 39.0883L21.2779 37.3815C21.3108 37.4054 21.3407 37.4294 21.3707 37.4534L24.0386 39.0643C24.1405 39.1242 24.1734 39.2559 24.1105 39.3577L23.5955 40.2111C23.5356 40.313 23.4038 40.3459 23.302 40.283L23.2721 40.265C23.4667 41.2831 23.2362 42.4569 22.4157 43.8163C20.3915 47.17 12.9146 48.8199 12.9146 48.8199C12.9146 48.8199 10.8875 41.4358 12.9116 38.0821C13.7321 36.7197 14.6633 35.9712 15.6545 35.6687L15.5886 35.6268C15.4868 35.5669 15.4538 35.4351 15.5167 35.3333L16.0318 34.4799C16.0916 34.3781 16.2234 34.3452 16.3252 34.4081L19.0291 36.04C19.065 36.055 19.101 36.0729 19.1369 36.0879L16.2743 34.3602C16.2653 34.0368 16.2743 33.7014 16.2893 33.357C12.3846 31.231 10.2856 33.4499 9.08186 34.0158C7.83622 34.6027 7.92006 33.5397 7.92006 33.5397C10.5671 29.153 14.6424 27.533 17.5469 26.9372C18.5111 23.9099 19.9993 20.6131 21.9845 17.3223C23.8231 14.2741 26.0688 11.7169 28.3505 9.67177C33.4379 5.10838 38.699 3.09315 40.0045 3.88067C41.316 4.66818 41.9868 10.2616 40.3219 16.8911Z" fill="white"/>
<path d="M82.872 14.176V32.86C82.872 35.26 82.236 37.084 80.964 38.332C79.692 39.604 78.24 40.24 76.608 40.24C75 40.24 73.644 39.784 72.54 38.872C71.46 37.984 70.92 36.796 70.92 35.308C70.92 34.324 71.22 33.532 71.82 32.932C72.42 32.332 73.14 32.032 73.98 32.032C74.844 32.032 75.54 32.296 76.068 32.824C76.596 33.328 76.86 33.916 76.86 34.588C76.86 35.26 76.656 35.836 76.248 36.316C75.84 36.796 75.3 37.036 74.628 37.036C73.956 37.036 73.428 36.856 73.044 36.496C72.66 36.112 72.468 35.656 72.468 35.128C72.468 34.312 72.84 33.76 73.584 33.472C73.776 33.4 73.872 33.268 73.872 33.076C73.872 32.884 73.704 32.788 73.368 32.788C73.032 32.788 72.648 33.016 72.216 33.472C71.784 33.904 71.568 34.516 71.568 35.308C71.568 36.508 71.988 37.492 72.828 38.26C73.668 39.028 74.592 39.412 75.6 39.412C76.608 39.412 77.448 39.076 78.12 38.404C78.792 37.732 79.128 36.748 79.128 35.452V14.176H76.14V13.6H85.5V14.176H82.872ZM102.601 35.2C101.209 36.88 99.2654 37.72 96.7694 37.72C94.2734 37.72 92.3294 36.88 90.9374 35.2C89.5454 33.52 88.8494 31.36 88.8494 28.72C88.8494 26.08 89.5454 23.92 90.9374 22.24C92.3294 20.56 94.2734 19.72 96.7694 19.72C99.2654 19.72 101.209 20.56 102.601 22.24C103.993 23.92 104.689 26.08 104.689 28.72C104.689 31.36 103.993 33.52 102.601 35.2ZM101.125 31.132C101.173 30.436 101.197 29.632 101.197 28.72C101.197 27.808 101.173 27.004 101.125 26.308C101.077 25.612 100.957 24.868 100.765 24.076C100.597 23.284 100.357 22.636 100.045 22.132C99.7574 21.604 99.3254 21.172 98.7494 20.836C98.1974 20.5 97.5374 20.332 96.7694 20.332C96.0014 20.332 95.3294 20.5 94.7534 20.836C94.2014 21.172 93.7694 21.604 93.4574 22.132C93.1694 22.636 92.9294 23.284 92.7374 24.076C92.5694 24.868 92.4614 25.612 92.4134 26.308C92.3654 27.004 92.3414 27.808 92.3414 28.72C92.3414 29.632 92.3654 30.436 92.4134 31.132C92.4614 31.828 92.5694 32.572 92.7374 33.364C92.9294 34.156 93.1694 34.816 93.4574 35.344C93.7694 35.848 94.2014 36.268 94.7534 36.604C95.3294 36.94 96.0014 37.108 96.7694 37.108C97.5374 37.108 98.1974 36.94 98.7494 36.604C99.3254 36.268 99.7574 35.848 100.045 35.344C100.357 34.816 100.597 34.156 100.765 33.364C100.957 32.572 101.077 31.828 101.125 31.132ZM115.99 36.46V37H108.034V36.46H110.41V12.7H107.854V12.16H108.61C110.506 12.16 112.198 12.004 113.686 11.692V23.572H113.902C114.31 22.42 114.994 21.496 115.954 20.8C116.938 20.08 118.03 19.72 119.23 19.72C121.318 19.72 122.746 20.344 123.514 21.592C124.282 22.816 124.666 24.652 124.666 27.1V36.46H127.042V37H119.086V36.46H121.462V27.604C121.462 24.892 121.258 23.104 120.85 22.24C120.658 21.856 120.358 21.508 119.95 21.196C119.566 20.884 118.99 20.728 118.222 20.728C117.454 20.728 116.722 21.004 116.026 21.556C115.354 22.108 114.85 22.864 114.514 23.824C113.914 25.528 113.614 27.568 113.614 29.944V36.46H115.99ZM137.154 36.46V37H129.198V36.46H131.574V20.98H129.018V20.44H129.774C131.67 20.44 133.362 20.284 134.85 19.972V23.572H135.066C135.474 22.42 136.158 21.496 137.118 20.8C138.102 20.08 139.194 19.72 140.394 19.72C142.482 19.72 143.91 20.344 144.678 21.592C145.446 22.816 145.83 24.652 145.83 27.1V36.46H148.206V37H140.25V36.46H142.626V27.604C142.626 24.892 142.422 23.104 142.014 22.24C141.822 21.856 141.522 21.508 141.114 21.196C140.73 20.884 140.154 20.728 139.386 20.728C138.618 20.728 137.886 21.004 137.19 21.556C136.518 22.108 136.014 22.864 135.678 23.824C135.078 25.528 134.778 27.568 134.778 29.944V36.46H137.154ZM168.928 13.6C166.648 13.6 165.088 14.572 164.248 16.516C163.552 18.172 163.168 20.344 163.096 23.032C163.096 23.656 163.096 24.604 163.096 25.876C163.096 27.148 163.168 28.372 163.312 29.548C163.456 30.7 163.72 31.876 164.104 33.076C164.488 34.276 165.1 35.212 165.94 35.884C166.78 36.532 167.824 36.856 169.072 36.856C171.088 36.856 172.66 36.184 173.788 34.84C174.916 33.496 175.564 31.732 175.732 29.548L176.38 29.62C176.212 32.092 175.432 34.06 174.04 35.524C172.648 36.988 170.776 37.72 168.424 37.72C165.352 37.72 162.964 36.508 161.26 34.084C159.556 31.636 158.704 28.672 158.704 25.192C158.704 23.032 159.076 21.04 159.82 19.216C160.564 17.368 161.704 15.856 163.24 14.68C164.776 13.48 166.516 12.88 168.46 12.88C170.428 12.88 172.048 13.312 173.32 14.176C174.616 15.04 175.264 16.108 175.264 17.38C175.264 18.196 175 18.868 174.472 19.396C173.968 19.924 173.38 20.188 172.708 20.188C172.036 20.188 171.46 19.984 170.98 19.576C170.5 19.168 170.26 18.628 170.26 17.956C170.26 17.284 170.44 16.756 170.8 16.372C171.184 15.988 171.64 15.796 172.168 15.796C173.008 15.796 173.572 16.168 173.86 16.912C173.932 17.104 174.052 17.2 174.22 17.2C174.484 17.2 174.592 17.08 174.544 16.84C174.424 16 173.836 15.256 172.78 14.608C171.748 13.936 170.464 13.6 168.928 13.6ZM193.34 35.2C191.948 36.88 190.004 37.72 187.508 37.72C185.012 37.72 183.068 36.88 181.676 35.2C180.284 33.52 179.588 31.36 179.588 28.72C179.588 26.08 180.284 23.92 181.676 22.24C183.068 20.56 185.012 19.72 187.508 19.72C190.004 19.72 191.948 20.56 193.34 22.24C194.732 23.92 195.428 26.08 195.428 28.72C195.428 31.36 194.732 33.52 193.34 35.2ZM191.864 31.132C191.912 30.436 191.936 29.632 191.936 28.72C191.936 27.808 191.912 27.004 191.864 26.308C191.816 25.612 191.696 24.868 191.504 24.076C191.336 23.284 191.096 22.636 190.784 22.132C190.496 21.604 190.064 21.172 189.488 20.836C188.936 20.5 188.276 20.332 187.508 20.332C186.74 20.332 186.068 20.5 185.492 20.836C184.94 21.172 184.508 21.604 184.196 22.132C183.908 22.636 183.668 23.284 183.476 24.076C183.308 24.868 183.2 25.612 183.152 26.308C183.104 27.004 183.08 27.808 183.08 28.72C183.08 29.632 183.104 30.436 183.152 31.132C183.2 31.828 183.308 32.572 183.476 33.364C183.668 34.156 183.908 34.816 184.196 35.344C184.508 35.848 184.94 36.268 185.492 36.604C186.068 36.94 186.74 37.108 187.508 37.108C188.276 37.108 188.936 36.94 189.488 36.604C190.064 36.268 190.496 35.848 190.784 35.344C191.096 34.816 191.336 34.156 191.504 33.364C191.696 32.572 191.816 31.828 191.864 31.132ZM216.484 37H210.904V33.724H210.688C210.256 34.948 209.608 35.92 208.744 36.64C207.904 37.36 206.896 37.72 205.72 37.72C203.56 37.72 201.952 36.88 200.896 35.2C199.864 33.496 199.348 31.348 199.348 28.756C199.348 26.164 199.888 24.016 200.968 22.312C202.048 20.584 203.704 19.72 205.936 19.72C208.168 19.72 209.752 20.704 210.688 22.672H210.904V12.7H208.348V12.16H209.104C210.976 12.16 212.644 12.004 214.108 11.692V36.46H216.484V37ZM210.976 28.756V27.46C210.976 25.588 210.616 24.004 209.896 22.708C209.176 21.388 208.048 20.728 206.512 20.728C204.856 20.728 203.812 21.664 203.38 23.536C203.02 25.048 202.84 26.56 202.84 28.072C202.84 29.584 202.876 30.736 202.948 31.528C203.044 32.32 203.2 33.148 203.416 34.012C203.656 34.852 204.04 35.512 204.568 35.992C205.12 36.472 205.768 36.712 206.512 36.712C207.28 36.712 207.952 36.448 208.528 35.92C209.128 35.368 209.596 34.672 209.932 33.832C210.628 32.128 210.976 30.436 210.976 28.756ZM227.624 19.72C229.424 19.72 230.924 20.104 232.124 20.872C233.348 21.64 233.96 22.792 233.96 24.328C233.96 26.704 232.604 28.168 229.892 28.72C228.524 28.984 226.82 29.116 224.78 29.116H223.088V30.16C223.088 32.104 223.484 33.688 224.276 34.912C225.092 36.112 226.268 36.712 227.804 36.712C229.364 36.712 230.576 36.256 231.44 35.344C232.328 34.432 232.952 33.256 233.312 31.816L233.96 31.888C233.576 33.64 232.796 35.056 231.62 36.136C230.468 37.192 229.004 37.72 227.228 37.72C224.732 37.72 222.836 36.904 221.54 35.272C220.244 33.616 219.596 31.432 219.596 28.72C219.596 26.008 220.292 23.836 221.684 22.204C223.076 20.548 225.056 19.72 227.624 19.72ZM223.088 28.468H224.348C226.292 28.468 227.648 28.276 228.416 27.892C229.208 27.508 229.748 27.04 230.036 26.488C230.324 25.912 230.468 25.108 230.468 24.076C230.468 23.044 230.204 22.168 229.676 21.448C229.172 20.704 228.392 20.332 227.336 20.332C226.28 20.332 225.416 20.716 224.744 21.484C224.096 22.228 223.652 23.104 223.412 24.112C223.196 25.12 223.088 26.236 223.088 27.46V28.468Z" fill="white"/>
</svg>
